<svg xmlns="http://www.w3.org/2000/svg" viewBox="0 0 730.7 736"><circle cx="366.7" cy="367.5" r="357" fill="#00eb89"/><path d="M183.79 134.99c-9.87 2.61-17.42 6.99-24.87 14.44-7.55 7.55-11.83 15-14.44 25.25-1.86 6.99-1.86 10.9-1.86 167.12l1.86 167.12c1.02 4.01 3.17 9.78 4.84 12.95 4.38 8.2 14.53 18.07 22.92 22.26 12.86 6.43 12.11 6.43 89.34 6.15 68.1-.28 69.12-.28 71.64-2.24 4.94-3.63 6.43-6.61 6.43-12.48s-1.49-8.85-6.43-12.48c-2.52-1.96-3.63-1.96-72.57-2.42-67.26-.47-70.24-.56-73.78-2.33-4.66-2.33-9.78-7.45-12.11-12.11-1.86-3.63-1.86-6.52-1.86-164.42l1.86-164.42c2.33-4.66 7.45-9.78 12.11-12.11 3.63-1.86 6.24-1.86 124.83-1.86h121.1l3.73 2.05c4.84 2.61 10.15 8.2 12.3 12.86 1.58 3.45 1.68 8.76 2.14 69.87.47 61.2.56 66.42 2.14 68.75 7.27 11.09 25.25 7.17 27.2-6.06.28-2.24.47-32.98.28-68.28-.37-70.8-.09-67.26-6.33-79.74-6.15-12.02-18.54-22.73-31.49-27.11l-6.24-2.14-122.97-.19c-118.68-.2-123.25-.11-129.77 1.57zm28.41 78.62c-4.56 1.68-5.96 2.98-8.29 7.45-3.45 6.8-1.21 14.25 5.78 18.91l3.07 2.14h49.09 49.09l3.07-2.14c4.47-2.98 6.71-6.43 7.17-11.09.65-5.4-2.14-10.99-6.89-13.88l-3.54-2.24-47.51-.19c-38.09-.17-48.15.01-51.04 1.04zm-2.51 80.86c-4.47 3.07-6.71 6.52-7.17 11.18-.65 5.4 2.14 10.99 6.89 13.88l3.54 2.24 95.49.28 99.49-.28c5.31-.75 10.99-5.78 12.3-10.81 1.77-6.43-1.58-14.07-7.45-17.14-2.33-1.21-16.12-1.4-101.35-1.4h-98.65l-3.09 2.05zm259.9 58.87c-56.55 10.06-99.21 54.03-107.22 110.39-1.4 9.87-.65 33.63 1.4 42.95 5.4 24.69 16.68 45.83 34.19 63.81 18.72 19.28 40.15 31.11 66.79 36.98 13.51 2.98 37.91 2.98 51.33 0 26.55-5.96 46.76-16.95 65.4-35.49 18.54-18.63 29.53-38.85 35.49-65.4 2.98-13.41 2.98-37.82 0-51.33-4.01-18.45-11.55-35.49-22.26-50.21-6.61-9.22-22.73-24.97-31.77-30.93-13.79-9.22-29.9-16.12-46.3-19.75-9.04-2.04-37.73-2.69-47.05-1.02zm38.48 29.91c34.75 6.06 64.28 31.3 76.02 65.12 10.9 31.02 5.31 66.05-14.63 92.41-31.39 41.55-89.99 51.7-133.59 23.01-22.45-14.72-38.57-39.22-43.13-65.21-9.41-53.84 25.52-104.61 79.28-115.23 8.66-1.78 26.36-1.78 36.05-.1zm-25.43 30.46c-1.77 1.21-4.19 4.01-5.31 6.33-2.05 3.91-2.14 5.22-2.14 24.87v20.78h-20.77c-19.66 0-20.96.09-24.87 2.05-6.15 3.17-8.66 7.36-8.2 13.88.47 6.06 2.98 10.15 7.64 12.39 2.61 1.21 6.8 1.49 24.59 1.49h21.52l.28 22.08c.28 21.43.37 22.26 2.52 25.71 5.68 9.22 17.98 9.41 24.69.28 1.86-2.33 1.96-4.19 2.42-25.06l.47-22.54 22.52-.47c20.87-.47 22.73-.56 25.06-2.42 9.13-6.71 8.94-19-.28-24.69-3.45-2.14-4.29-2.24-25.62-2.52l-22.17-.28v-21.52c0-23.75-.47-25.99-5.87-29.81-4.37-3.16-12.29-3.34-16.48-.55zm-271.56-40.8c-6.24 2.7-9.78 9.87-8.48 16.86.84 4.38 5.5 9.5 9.69 10.71 2.33.75 22.36.93 61.39.75 57.11-.28 57.94-.28 60.55-2.24 9.13-6.8 9.13-18.17 0-24.97-2.61-1.96-3.45-1.96-61.48-2.14-47.51-.18-59.43 0-61.67 1.03z" fill="#fff"/></svg>