<svg id="addplus" xmlns="http://www.w3.org/2000/svg" viewBox="0 0 50 50"><path d="M23.15.45c-3.64.35-6.35 1.12-9.42 2.67-3.63 1.86-6.89 4.78-9.28 8.31-1 1.5-2.23 4.03-2.83 5.82-.47 1.44-.86 3.09-1.09 4.71-.16 1.13-.16 4.92 0 6.06.4 2.84 1.15 5.32 2.33 7.69 1.32 2.69 2.61 4.5 4.75 6.64 2.12 2.11 3.96 3.43 6.55 4.7 1.81.88 2.97 1.32 4.81 1.78 4.81 1.21 9.63.98 14.32-.68 1.43-.51 3.91-1.75 5.19-2.6 2.87-1.91 5.51-4.61 7.39-7.57.69-1.09 1.81-3.39 2.26-4.67 2.26-6.36 1.86-13.19-1.11-19.16-1.19-2.4-2.53-4.3-4.4-6.23-2.08-2.15-4.11-3.63-6.83-4.98-2.85-1.4-5.5-2.16-8.65-2.45-.98-.09-3.2-.11-3.99-.04zm2.92 12.05c.19.13.47.41.62.62l.26.37.05 4.72.05 4.72 4.72.05 4.72.05.37.26c.2.14.48.42.62.62.2.3.24.46.24 1.09s-.04.79-.24 1.09c-.13.2-.41.48-.62.62l-.37.26-4.72.05-4.72.05-.05 4.72-.05 4.72-.26.37c-.14.2-.42.48-.62.62-.3.2-.46.24-1.09.24-.62 0-.79-.04-1.09-.24-.2-.13-.48-.41-.62-.62l-.26-.37-.05-4.72-.05-4.72-4.72-.05-4.72-.05-.37-.26c-.6-.42-.85-.87-.88-1.61-.04-.79.22-1.36.84-1.79l.41-.29 4.72-.05 4.73-.05.05-4.73.05-4.72.29-.41c.43-.62 1-.87 1.79-.84.46.04.7.1.97.28z"/></svg>