<svg id="deletebtn" viewBox="0 0 30 30"><path d="M13.81.25c-.13.01-.47.06-.76.1C7.2 1.13 2.31 5.37.75 11.03c-.4 1.49-.52 2.31-.52 3.95-.01 1.64.08 2.32.46 3.79.63 2.45 1.87 4.65 3.63 6.48 2.31 2.41 5.13 3.87 8.52 4.42 1 .17 3.27.16 4.29-.01 2.22-.36 4.26-1.13 6-2.29 3.53-2.35 5.85-5.99 6.5-10.24.16-1.05.16-3.18 0-4.23-.52-3.34-2-6.22-4.41-8.55-2.19-2.11-4.78-3.41-7.9-3.94-.74-.14-2.91-.24-3.51-.16zm6.2 9.34c.35.18.55.51.55.93-.01.18-.04.39-.08.48s-.96 1.02-2.04 2.08l-1.96 1.94 2.03 2c1.78 1.75 2.04 2.04 2.07 2.25.07.38-.03.69-.28.98-.29.32-.63.43-1.02.32-.24-.07-.55-.34-2.29-2.07l-2-2-1.96 2c-1.73 1.76-2 2-2.24 2.07-.75.19-1.45-.47-1.31-1.23.05-.28.21-.46 2.74-3.01l1.29-1.31-1.96-1.96c-2.11-2.13-2.11-2.12-2-2.71.06-.32.46-.72.78-.78.59-.11.58-.11 2.71 2L15 13.53l1.97-1.96c1.08-1.08 2.04-2 2.13-2.03.26-.12.64-.09.91.05z"/></svg>