<svg id="duplicatebtn" xmlns="http://www.w3.org/2000/svg" xmlns:xlink="http://www.w3.org/1999/xlink" viewBox="0 0 674 675.1"><circle cx="336" cy="335.1" r="330"/><g class="duplicateinside" fill="#fff"><path  d="M175.2 128.9c-13.5 2.7-26 12.1-31.8 23.9-5.5 11.1-5.1-2.1-5.3 162.5l.7 156.8c1.6 12.8 9.1 24.9 19.5 31.8 9.3 6.2 14.2 7.5 30.8 7.9 12.5.3 15 .2 17.4-1.1 3.8-1.9 5.7-6.4 4.4-10.3-1.8-5.6-2.9-5.9-18.8-6.4-13-.4-14.7-.7-19-2.7-5.9-2.7-10.9-7.5-13.7-13.2l-2.1-4.2-.3-152.8 1.6-157.4c2.2-6 7.9-11.9 14.3-14.9l4.9-2.3h115.7 115.7l4.7 2.2c2.7 1.2 6.2 3.5 8 5 3.9 3.4 8.1 11.8 8.7 17.7.8 6.3 2 8.7 5.1 10.3 3.5 1.9 8.1 1.2 10.7-1.6 4-4.3 3.1-15-2.2-26.2-3.9-8.1-12.1-16.6-19.8-20.5-10.8-5.5-4.6-5.2-130.9-5.1l-118.3.6zm79.9 60.9c-16.2 2.4-29.7 13.9-36.1 30.6l-1.9 4.9-.3 144.2c-.3 159.2-.5 149.9 5.1 160.8 4.1 7.7 12.6 15.9 20.4 19.6 3.5 1.6 8.7 3.5 11.6 4 3.7.7 37.7.9 121.3.7l116.1-.3 5.9-2.3c12-4.6 19.7-11.7 25.5-23.3 2.5-5.1 3.6-8.7 4.3-13.8.5-4.5.8-54.4.6-147.4l-1.8-145.2c-5.2-15.6-15.9-26.2-31.4-31.4-4.5-1.5-10.5-1.6-119.5-1.7-63.3-.1-117.2.1-119.8.6zm238.3 20.4c5.2 2.7 9.9 7.4 12.7 12.5l2.3 4.3v144.8 144.8l-2.1 4.2c-2.8 5.7-7.8 10.5-13.7 13.3l-4.8 2.2H372.2 256.5l-5.7-2.8c-6.5-3.2-10.3-7-13.5-13.9l-2.2-4.7V371.8l1.5-146.5c2.5-5.6 5.8-9.9 9.8-12.5 7.6-5.2-.3-5 126.7-4.8l116.5.2 3.8 2z"/><use xlink:href="#B"/><path d="M294.1 337c-3.8 2.3-5.1 6.6-3.5 10.6 2.7 6.2-3.3 5.7 81.8 5.7H449l2.5-2.5c2.7-2.7 3.3-6.8 1.5-10.8-2.2-4.9.8-4.7-81-4.7-72.6.1-75.3.2-77.9 1.7zm.8 72.6c-2.5 1.3-5.4 5.6-5.4 8.1 0 .6.6 2.3 1.4 3.9 2.7 5.8-1 5.6 80.8 5.6 79.4 0 77.8.1 81-4.4 1.8-2.6 1.8-7.5 0-10.1-3.2-4.5-1.5-4.4-81.1-4.4-65.4-.1-74.3.1-76.7 1.3z"/><use xlink:href="#B" y="219.4"/></g><defs ><path id="B" d="M293.5 264.2c-3.3 2.6-4.5 6.9-2.8 10.5 2.5 6.1-1.9 5.7 81.5 5.7 68.6 0 75.3-.1 77.6-1.5 5-2.9 5.8-9.9 1.8-14.1l-2.5-2.5h-76.7c-75.5.2-76.7.2-78.9 1.9h0z"/></defs></svg>