<svg id="editbtn" viewBox="0 0 30 30"><path d="M13.59.27C8.97.75 4.91 3.26 2.45 7.18-1.04 12.74-.38 20.11 4.03 24.92c2.46 2.67 5.5 4.26 9.15 4.78.69.1 2.96.09 3.67-.01 3.25-.45 6.17-1.86 8.41-4.04 2.5-2.45 3.94-5.32 4.44-8.83.1-.68.1-2.96 0-3.64-.41-2.87-1.51-5.45-3.22-7.52C24.06 2.73 20.8.89 17.06.34a22.35 22.35 0 0 0-3.47-.07zm7.33 8.88c.93.93 1.25 1.29 1.25 1.4 0 .1-.22.35-.78.92l-.78.79-1.43-1.43-1.43-1.43.76-.75c.68-.67.77-.75.95-.75.19-.01.31.1 1.46 1.25zm-2.79 2.76l1.42 1.42-3.51 3.51-3.51 3.51-1.43-1.43-1.43-1.43 3.5-3.5 3.53-3.5c0 0 .65.64 1.43 1.42zm-7.16 10l-.46.46-1.38.31c-.76.17-1.46.31-1.56.31-.23 0-.47-.19-.51-.39-.06-.25.58-3.01.73-3.19.07-.08.27-.29.45-.48l.32-.33 1.43 1.43 1.43 1.43-.45.45z"/></svg>