<svg id="hlogo" xmlns="http://www.w3.org/2000/svg" viewBox="0 0 392 90.7"><linearGradient id="A" gradientUnits="userSpaceOnUse" x1="211.007" y1="1.039" x2="354.43" y2="73.437"><stop offset="0" stop-color="#005a96"/><stop offset=".5" stop-color="#228bb0"/><stop offset="1" stop-color="#28afa9"/></linearGradient><path d="M280.4 57.6h2.7V35.3h-2.7v22.3zm0-26.5h2.7v-4.4h-2.7v4.4zm-27.7-1.8h10.7v28.3h2.9V29.3H277v-2.5h-24.4l.1 2.5h0zm60.7 5.4c-2.9 0-5.7 1.4-7.1 4.4-.8-2.9-3.5-4.4-6.4-4.4-3.6 0-5.9 1.7-7.3 4.4h-.1v-3.8H290v22.3h2.7V45.1c0-4.7 2-8.2 6.6-8.2 3.5 0 4.7 2.5 4.7 5.5v15.1h2.7V45c0-4.1 1.3-8 6-8 3.9 0 5.3 2 5.3 5.7v15h2.7V42.5c.1-5.3-2.4-7.8-7.3-7.8zm21.5 0c-7.1 0-10.1 5.9-10.1 11.8 0 6.3 3 11.8 10.1 11.8 5.2 0 8.1-2.5 9.4-6.9h-2.8c-1 2.8-3.1 4.6-6.6 4.6-5.2 0-7.3-4.8-7.3-8.8h17.1c.2-6.3-2.7-12.5-9.8-12.5zm-7.3 10.2c.5-4.1 2.8-7.9 7.3-7.9 4.4 0 6.9 3.8 7.1 7.9h-14.4z" fill="url(#A)"/><g fill="#4b4b4d"><path d="M87.3 26.7h9.6l7.2 21.3h.1l6.8-21.3h9.6v30.9h-6.4V35.7h-.1l-7.6 21.9h-5.2L93.7 36h-.1v21.7h-6.4v-31h.1zm42.8 21.2c.2 3.9 2 5.7 5.5 5.7 2.5 0 4.5-1.5 4.8-2.9h5.4c-1.7 5.3-5.4 7.5-10.5 7.5-7.1 0-11.4-4.8-11.4-11.8 0-6.7 4.6-11.8 11.4-11.8 7.6 0 11.3 6.4 10.9 13.3h-16.1zm10-3.9c-.6-3.1-1.9-4.8-4.9-4.8-4 0-5 3-5.1 4.8h10zm25.8 10.8h0c-1.5 2.4-4 3.5-6.9 3.5-6.8 0-10-5.8-10-12 0-6 3.3-11.6 9.9-11.6 2.6 0 5.2 1.1 6.6 3.3h.1V26.7h6.1v30.9h-5.8v-2.8h0zm-5.4-15.5c-4 0-5.4 3.5-5.4 7.1 0 3.5 1.6 7.2 5.4 7.2 4 0 5.3-3.5 5.3-7.2 0-3.6-1.3-7.1-5.3-7.1zm22.7-7.5H177v-5.1h6.1l.1 5.1h0zm-6.2 3.5h6.1v22.4H177V35.3zm25.9 7.8c-.4-2.6-1.9-3.9-4.5-3.9-3.9 0-5.2 4-5.2 7.3 0 3.2 1.3 7.1 5.1 7.1 2.9 0 4.5-1.8 4.9-4.5h5.9c-.8 5.9-4.8 9.2-10.8 9.2-6.8 0-11.3-4.8-11.3-11.5 0-7 4.2-12.1 11.4-12.1 5.3 0 10.2 2.8 10.5 8.5l-6-.1h0zm9-1c.3-5.7 5.5-7.5 10.5-7.5 4.5 0 9.8 1 9.8 6.4v11.6c0 2 .2 4.1.8 5h-6.2c-.2-.7-.4-1.4-.4-2.2-1.9 2-4.8 2.8-7.5 2.8-4.3 0-7.6-2.1-7.6-6.7.1-10.2 15.1-4.7 14.9-9.7 0-2.6-1.8-3-4-3-2.4 0-3.9 1-4.1 3.4l-6.2-.1h0zm14.2 4.6c-1 .9-3.2 1-5.1 1.3s-3.6 1-3.6 3.3 1.8 2.9 3.8 2.9c4.8 0 5-3.8 5-5.2l-.1-2.3h0zm10.7-20h6.1v30.9h-6.1V26.7zm102.6 38.8c-.2-.8-.6-1.4-1.4-1.8-.7-.4-1.6-.4-2.4-.2-.4.1-1 .3-1.9.8-.7.4-1.1.7-1.3 1-.2-.7-.4-1.1-.7-1.2-.1 0-.3-.1-.7.2-.9.6-2.3 3.1-4.1 7.7-1.4 3.6-3.6 8.6-4.2 11.5-.2.8.6 1.6 1.2.2.4-.7.8-1.7 1.3-2.7.8-1.7 2.2-5.5 2.6-5.9.8.6 1.4.9 1.9.9 2 .2 3.3-.6 3.7-.8 1.2-.6 2.5-1.8 3.9-3.4 1.8-2.2 2.5-4.3 2.1-6.3zm-3.7 6c-1.6 1.9-3.1 3-4.4 3.3-.7.1-1.4.2-2.1.1s-1.1-.3-1.2-.8c-.1-.6.5-2 2-4.4 1.4-2.3 2.3-3.7 2.7-3.9.8-.7 1.7-1.1 2.8-1.3s1.7.1 1.9 1c.5 2-.1 4-1.7 6zm-37 8.6c-1.5.2-2.4-.6-2.6-2.4-.1-1 .1-2.2.7-3.5l2.1-4.6c-3.1 2-5.8 4.8-8 8.4-1.2 2.4-2 3.6-2.2 3.7-.7.1-1.1-.1-1.2-.5 0-.2.1-.7.3-1.3 2-4.7 3.4-8.2 4.5-10.4 2.5-5.3 4.8-9 6-9.6l.1-.1c.3 0 1.1 0 .6 1.2-.4 1.1-1.8 3.6-3.6 6.7-2.3 3.7-3.5 6.2-3.8 7.3l4.5-4.1c2.3-2.1 3.9-3.2 4.7-3.3s1.3.2 1.3.8v.2s-.8 1.4-2.2 4c-1.5 2.6-2.2 4.5-2 5.6.1.6.3.9.8.8 1.4-.2 3.3-2.1 5.6-5.8.2-.3.4-.4.5-.4s.2.1.2.2c.1.5-1 2.1-3.3 4.6-1.4 1.6-2.4 2.4-3 2.5z"/><path d="M312.9 70.5c.1.9-.6 2.4-2 4.7-1.7 2.6-3.2 4.1-4.6 4.2l-.6.1c-.6.1-1.2-.2-1.6-.8-.4-.4-.6-.9-.6-1.5-.2-1.5.7-3.7 2.5-6.7s3.4-4.5 4.8-4.7c1.3-.2 2 .4 2.1 1.8V69c0 .1.3.1.7 0s1-.3 1.8-.9c.2-.1.1.1.1.2-.1.8-1.1 1.3-2.7 1.9 0 0 0 .2.1.3zm-2.7-1.7c-.8.1-1.9 1.2-3.2 3.4s-1.9 3.7-1.8 4.7c.1.9.5 1.4 1.1 1.3 1.1-.1 2.3-1.3 3.7-3.4s2.1-3.6 2-4.5c-.5-.1-1.1-.6-1.8-1.5zm32.1 6.2c-1.3.2-2.1-.6-2.3-2.3-.2-1.4.4-3.4 1.6-6s2.3-4 3.2-4.2c.3 0 .6 0 .9.2s.5.4.6.6c-.1.2-.2.4-.4.7-.2.2-.3.5-.5.8s-.4.7-.7 1.2l-.9 1.5c-1.6 2.7-2.4 4.6-2.3 5.5s.5 1.4 1.1 1.3c.5-.1 1.2-.4 2.1-1.2 2-1.6 3.5-3.3 4.6-5 .4-.6.7-1 .8-1 .2 0 .3.1.3.3s-.2.7-.7 1.3l-1.2 1.6-.6.8c-.1.1-.3.4-.6.7a6.53 6.53 0 0 1-.7.8l-.7.7c-.3.3-.6.5-.8.7-.2.1-.5.3-.8.5-.6.2-1.2.4-2 .5zm6.2-16.8c.4.2.6.5.6.8s-.1.6-.4.9-.6.4-1 .5c-.4 0-.8-.1-1.1-.3-.4-.2-.6-.5-.6-.9-.1-.7.4-1.1 1.3-1.3.4.1.8.1 1.2.3z"/><path d="M358.2 60.1l4.7-.6s.6.3-.1.5c-.8.3-2 .6-3.7 1l-5.1 1.4c-.4.5-1.2 1.9-2.2 4.2s-1.5 4-1.4 5c.1.9.8 1.3 2.1 1.2.6-.1 1.4-.4 2.4-.9a12.12 12.12 0 0 0 2.2-1.4c1.3-1.1 2.7-2.6 4.1-4.5.3-.4.5-.6.7-.6.1 0 .1.1.1.2 0 .2-.1.5-.5 1-1.1 1.8-2.5 3.3-4 4.5-1.9 1.5-3.7 2.3-5.5 2.5-.8.1-1.5 0-2-.3s-.9-1-1-2c-.1-1.1.2-2.6.9-4.5l1.6-4.4c-.4.1-.7.2-.9.2-.7.1-1.2-.2-1.2-.7-.1-.4.2-.8.8-1 .1 0 .2 0 .3-.1l2.2-.3c.4-.6.8-1.4 1.3-2.2.6-1 1-1.5 1.3-1.6.3 0 .6 0 1 .2s.6.4.7.7c0 .3-.5 1.2-1.5 2.7.7 0 1.6-.1 2.7-.2z"/><path d="M372 59.7l.5-.2c.3 0 .5 0 .8.2s.4.4.4.5-.6 1.4-1.9 3.9c-1.3 2.4-1.8 4.1-1.7 5 0 .1 0 .1.1.2.2.6.5.8.9.8 1.3-.2 3.4-2.6 6.3-7.2.1-.1.1-.2.2-.2s.2.1.2.3-.1.4-.2.8c-2.6 4.6-4.8 7-6.5 7.2h-.6c-1.1-.3-1.8-1-1.9-2.2-.1-.4-.1-.8 0-1.3l-2 2.5c-1.3 1.5-2.3 2.2-2.9 2.3-.7.1-1.3-.1-1.9-.4-.7-.4-1.1-1-1.2-1.8-.2-1.8.8-4.1 3-6.9s4.4-4.3 6.5-4.6c.8-.1 1.4.1 1.7.7.1.2.2.3.2.4-.1 0 0 0 0 0zm-9.9 10.5c.1.9.5 1.3 1.1 1.2 1.4-.2 3.2-2 5.3-5.4l3.3-5.9c-.2-.3-.6-.5-1-.4-1.5.2-3.4 1.6-5.6 4.2-2.3 2.7-3.3 4.7-3.1 6.3z"/><path d="M378.1 68.3c.1.8.6 1.1 1.4 1s1.9-.7 3.1-1.7c1.2-1.1 2.4-2.4 3.4-4.1.3-.4.5-.7.7-.7s.3 0 .3.2-.4.9-1.3 2.2c-2.2 3.1-4.2 4.8-5.9 5-.8.1-1.6 0-2.2-.3s-1-.9-1.1-1.7 0-1.8.3-3c.5-1.8 1.5-4.2 2.8-7 2.4-5.2 4.2-7.9 5.5-8.1.3 0 .5 0 .8.2s.5.4.5.6l-2.9 5-2.9 5.3-1.2 2.4c-.3.5-.5.9-.6 1.2s-.3.7-.4 1.1c-.3.8-.4 1.7-.3 2.4zm-50 2.4c-.4 1-.8 1.6-1 1.8-2.1 2.5-4 3.6-6 3.6l1-4.7c.5-2.3.9-3.8 1.3-4.5.1-.1.2-.3.3-.4.1-.2.3-.4.5-.6.2-.3.3-.5.3-.8 0-.6-.4-.8-1.1-.9-.2 0-1 .6-2.3 1.8l-4.5 4.1-3.7 3.7c-.9 1-.5 1.3.3.5l3.2-3.1c.2-.3.5-.5.8-.8a42.85 42.85 0 0 1 4.2-3.7l-.1 1.2c-.1 1.4-.4 3.1-.9 5-.3 1-.5 1.9-.8 2.4-.2.5-1 1.4-2.2 1.3-.7-.1-1.8-.3-2.4-1.6 0-.1-.1-.2-.1-.3a.55.55 0 0 0-.5-.3c-.5 0-.6.7-.5.9.3.8.6 1.5 1 1.9 1.6 1.8 4.2.8 4.8.4l1.3-.6c1.1-.2 2.1-.5 2.8-.8 1.2-.6 2.5-1.7 3.9-3.3.2-.3.3-.5.3-.6 0-.2.2-1.8.1-1.6z"/></g><linearGradient id="B" gradientUnits="userSpaceOnUse" x1="47.237" y1="75.706" x2="26.461" y2="9.404"><stop offset="0" stop-color="#005392"/><stop offset=".454" stop-color="#2e98b5"/><stop offset="1" stop-color="#28afa9"/></linearGradient><path d="M66.9 23.1L38.6 6.8c-1.1-.6-2.5-.6-3.6 0L6.8 23.1c-1.1.7-1.8 1.8-1.8 3.1v32.7c0 1.3.7 2.5 1.8 3.1l28.3 16.3c.5.3 1.2.5 1.8.5s1.2-.2 1.8-.5L66.9 62c1.1-.6 1.8-1.8 1.8-3.1V26.2c0-1.3-.7-2.4-1.8-3.1zm1.2 35.8c0 1.1-.6 2.1-1.5 2.6L38.4 77.8a3.19 3.19 0 0 1-3 0L7.1 61.5c-.9-.5-1.5-1.5-1.5-2.6V26.2c0-1.1.6-2.1 1.5-2.6L35.4 7.3c.5-.3 1-.4 1.5-.4s1 .1 1.5.4l28.3 16.3c.9.5 1.5 1.5 1.5 2.6l-.1 32.7h0zm-3.7-34.1l-25.9-15a3.25 3.25 0 0 0-3.3 0l-25.9 15c-1 .6-1.6 1.7-1.6 2.8v29.9c0 1.2.6 2.3 1.6 2.8l25.9 15a3.25 3.25 0 0 0 3.3 0l25.9-15c1-.6 1.6-1.7 1.6-2.8V47h-.3l-7.8.4-.4 7.9c0 .3-.3.7-.6.9-1.2.8-6.4.9-7.7 0-.3-.2-.5-.6-.6-.9l-.4-7.9-7.9-.4c-.3 0-.7-.3-.9-.6-.8-1.2-.9-6.4 0-7.7.2-.3.6-.5.9-.6l7.9-.4.4-7.9c0-.3.3-.7.6-.9 1.3-.9 6.4-.9 7.7 0 .3.2.5.6.6.9l.4 7.9 7.7.4h.3V27.6c.1-1.2-.5-2.3-1.5-2.8zm-41.7-3.7c.3-1.2 1.1-2 2.3-2.3.2 0 .4-.1.6-.1.8 0 1.5.3 2.1.9s.8 1.4.8 2.2-.3 1.5-.9 2h0l-.3.3h0l-.1.1c-.2.1-.2.2-.2.4l-.3 7.7-.2 5.5-1.7-1c-.1-.1-.4-.3-.4-1l-.1-3.7-.1-2.3-.1-5.2c0-.1-.1-.2-.2-.3-.2-.1-.3-.3-.5-.4-.1-.1-.2-.2-.3-.4h0 0c-.5-.8-.6-1.6-.4-2.4zm.4 43.8s-.1 0 0 0h-.2v-.1s0-.1.2-.1c.8-.3 1.4-.7 1.9-1v.7c-.4.2-1.1.4-1.9.5zm2.6.9v.2h0c0 .1-.1.2-.2.2s-.2-.1-.2-.2h0l-.2-7.1.3.2c.3.2.5.4.5.9 0 0-.2 5.5-.2 5.8zm2.8-4c-.3.9-1.6 1.8-2.4 2.2 0-.5 0-.9.1-1.4.3-.3 1.5-1.2.4-3.1-.7-1.1-1.7-1.9-2.7-2.6l-.9-.7c-1.7-1.4-1.8-3.3-.5-5.1.2-.3.5-.6.8-.9l.4-.4.1-.1.3-.3.1 3.2c0 .1-.1.2-.1.3-.3.5-.3 1.1.1 1.5l.5.5.9.7c1 .8 2.1 1.7 2.8 3 .5 1.2.3 2.8.1 3.2zm-3.9-20.6l1.5.8c.3.2.3.4.3.6-.1 1.8-.4 10.8-.4 10.8v1.1c-.7-.4-.6-.4-.9-.6h0c-.2-.2-.3-.5-.3-.9 0-2.7-.2-11.8-.2-11.8zm5.6 4.6c-.7 1.2-1.7 2.2-2.7 3.1l-.6.6c0-1 0-1.8.1-2.8 0 0 1-1.1 1.5-2.1.3-.5.2-1.3-.1-1.8a4.83 4.83 0 0 0-2.2-1.7c-.3-.2-1.7-.9-2.8-1.5-.6-.3-1.5-.9-2.1-1.3-.8-.6-1.6-1.4-2.1-2.6-.7-1.6-.6-3.2.5-4.8.8-1.2 2-2.1 3.5-2.7l.2-.1v1.2.5c-.1.4-.4.8-.9 1.1-.8.5-1.3 1.3-1.5 2.3-.1.4 0 1.2.3 1.6.5.8 1.2 1.5 2.2 2.1.1.1.3.2.4.3s2.8 1.6 3.1 1.8c1.1.6 2.3 1.4 3.2 2.6.8 1.4.8 2.7 0 4.2zm3-11.8h-.6c-1.9 0-3.2-1-3.8-3-.2-.6-.4-.8-.7-.8h-.3-.2c0-.8.1-1.6.1-2.4.9 0 4 .2 5.7 3.1a8.4 8.4 0 0 1 .4 1.2c.1.3.1.6.1 1 .1.6-.2.9-.7.9z" fill="url(#B)"/><linearGradient id="C" gradientUnits="userSpaceOnUse" x1="49.837" y1="68.473" x2="33.95" y2="17.775"><stop offset="0" stop-color="#025589"/><stop offset=".497" stop-color="#37a8db"/><stop offset=".886" stop-color="#fff"/></linearGradient><path d="M40.4 38.1l7.9-.4.4-7.9c0-.3.3-.7.6-.9 1.3-.9 6.4-.9 7.7 0 .3.2.5.6.6.9l.4 7.9 7.7.4h.3V29c0-2.1-1.1-4-2.9-5L38.5 9.8a3.25 3.25 0 0 0-3.3 0l-1.2.7h0L9.3 24.8c-.1.1-.3.2-.4.3l-.1.1c-.1.1-.2.2-.3.4h0l-.6 1h0c2.9 7.9 7.5 15.6 13.7 22.4a3.61 3.61 0 0 0 .4.5h0l.2.2.1.1s.2.2.5.6l.3-.3.4-.4.1-.1.3-.3v1.1.2 1h0l.9.9h0 0 0c0-1.1-.1-2.8-.1-4.5v-.1-1.3-.1c0-1.2-.1-2.3-.1-3.2v-.2-.9-.4-.2-.1h0l1.5.8c.3.2.3.4.3.6-.1 1.8-.4 10.8-.4 10.8v.1c.8.8 1.6 1.4 1.9 1.5 6.4 5.4 14 9.9 22.9 13l1.6-.9 11.9-6.9c.1-.1.2-.1.3-.2 0 0 .1 0 .1-.1l.2-.2.1-.1c.2-.2.3-.4.4-.6l.1-.1.3-.6c.1-.3.2-.7.2-1.1V47h-.3c-2.6.2-5.2.3-7.8.4l-.4 7.9c0 .3-.3.7-.6.9-1.2.8-6.4.9-7.7 0-.3-.2-.5-.6-.6-.9-.2-2.6-.3-5.2-.4-7.9l-7.9-.4c-.3 0-.7-.3-.9-.6-.8-1.2-.9-6.4 0-7.7.3-.3.7-.5 1-.6zm-17.7-17c.3-1.2 1.1-2 2.3-2.3.2 0 .4-.1.6-.1.8 0 1.5.3 2.1.9s.8 1.4.8 2.2-.3 1.5-.9 2h0l-.3.3h0l-.1.1c-.2.1-.2.2-.2.4l-.3 7.7c-.1 1.5-.2 5.4-.2 5.5 0 0-1.3-.7-1.7-1-.1-.1-.4-.3-.4-1 0-1.3 0-2.4-.1-3.7l-.1-2.3c0-1.7-.1-3.5-.1-5.2 0-.1-.1-.2-.2-.3-.2-.1-.3-.3-.5-.4-.1-.1-.2-.2-.3-.4h0 0c-.5-.8-.6-1.6-.4-2.4zm7.5 24.7c-.7 1.2-1.7 2.2-2.7 3.1l-.6.6c0-1 0-1.8.1-2.8 0 0 1-1.1 1.5-2.1.3-.5.2-1.3-.1-1.8a4.83 4.83 0 0 0-2.2-1.7c-.3-.2-1.7-.9-2.8-1.5-.6-.3-1.5-.9-2.1-1.3-.8-.6-1.6-1.4-2.1-2.6-.7-1.6-.6-3.2.5-4.8.8-1.2 2-2.1 3.5-2.7l.2-.1v1.2.5c-.1.4-.4.8-.9 1.1-.8.5-1.3 1.3-1.5 2.3-.1.4 0 1.2.3 1.6.5.8 1.2 1.5 2.2 2.1.1.1.3.2.4.3s2.8 1.6 3.1 1.8c1.1.6 2.3 1.4 3.2 2.6.8 1.4.8 2.7 0 4.2zm3-11.8h-.6c-1.9 0-3.2-1-3.8-3-.2-.6-.4-.8-.7-.8h-.3-.2c0-.8.1-1.6.1-2.4.9 0 4 .2 5.7 3.1a8.4 8.4 0 0 1 .4 1.2c.1.3.1.6.1 1 .1.6-.2.9-.7.9z" opacity=".5" fill="url(#C)"/><linearGradient id="D" gradientUnits="userSpaceOnUse" x1="42.022" y1="56.548" x2="59.644" y2="75.58"><stop offset="0" stop-color="#19487d"/><stop offset=".022" stop-color="#255284" stop-opacity=".978"/><stop offset=".124" stop-color="#587aa0" stop-opacity=".876"/><stop offset=".23" stop-color="#849dba" stop-opacity=".77"/><stop offset=".339" stop-color="#aabccf" stop-opacity=".661"/><stop offset=".452" stop-color="#c9d4e0" stop-opacity=".548"/><stop offset=".57" stop-color="#e1e7ee" stop-opacity=".43"/><stop offset=".694" stop-color="#f2f4f8" stop-opacity=".306"/><stop offset=".831" stop-color="#fcfcfd" stop-opacity=".17"/><stop offset="1" stop-color="#fff" stop-opacity="0"/></linearGradient><path d="M57.6 53.8c0 .5-.1 1-.1 1.4 0 .3-.3.7-.6.9-1.1.7-5.5.9-7.3.2-8.4 3.3-15.9 8.3-22 14.6l3.8 2.2 2.4 1.4h0l.7.4.6.3c.5.3 1.1.4 1.6.4h.4c.4-.1.8-.2 1.2-.4l6.3-3.6L62.9 61h0 0l1.3-.7c1-.6 1.6-1.7 1.6-2.8v-5.2c-2.6.3-5.4.8-8.2 1.5z" opacity=".35" fill="url(#D)"/><linearGradient id="E" gradientUnits="userSpaceOnUse" x1="64.652" y1="54.764" x2="46.361" y2="35.807"><stop offset="0" stop-color="#005f8b"/></linearGradient><path d="M57.5 29.8h0l.3 6c0 .6.1 1.3.1 1.9h.7l-.4-7.2c0-.3-.3-.7-.6-.9-.1 0-.2-.1-.3-.1v.1c.2.1.2.2.2.2zM40.4 47h-.2-.1 0c0 .1.1.2.1.3.2.3.6.5.9.6l7.2.4v-.7l-7.9-.6zm25.3 0l-7.8.4h0c0 .7-.1 1.3-.1 2l-.3 5.9c0 .2-.2.5-.4.7h0l-.2.2h0c-.1 0-.2.1-.3.1h-.1c-.1 0-.1.1-.2.1h-.2c-.1 0-.2 0-.2.1h-.2-.3-.2-.3-.3-.3-.3-.3-.3-.2-.4-.2-.4-.2-.4-.1-.4-.1c-.1 0-.3 0-.4-.1h-.1c-.1 0-.3 0-.4-.1H50c-.1 0-.2-.1-.4-.1h0c-.1 0-.2-.1-.3-.1h0c.1.2.3.5.5.6 1.3.9 6.5.8 7.7 0 .3-.2.5-.6.6-.9l.4-7.9 7.4-.4V47c.1 0-.1 0-.2 0z" opacity=".5" fill="url(#E)"/><linearGradient id="F" gradientUnits="userSpaceOnUse" x1="20.471" y1="43.3" x2="34.475" y2="43.3"><stop offset="0" stop-color="#005f8b"/></linearGradient><path d="M26.7 41.6c.6.3 1.1.6 1.6 1-.5-.7-1.2-1.2-2.1-1.6-.3-.2-1.7-.9-2.8-1.5-.6-.3-1.5-.9-2.1-1.3-.3-.2-.6-.5-.9-.8.4.5.9 1 1.4 1.3.5.4 1.4 1 2.1 1.3 1 .7 2.5 1.5 2.8 1.6zm-4.6-5.7c-.1-.2-.2-.3-.3-.5-.3-.5-.4-1.2-.3-1.6.2-1.1.7-1.9 1.5-2.3.5-.3.8-.6.9-1.1v-.5-1.2l-.2.1c-.1 0-.2.1-.3.1v.4.5c-.1.4-.4.8-.9 1.1-.8.5-1.3 1.3-1.5 2.3-.1.4 0 1.2.3 1.6.2.5.5.8.8 1.1zM24.5 53l-.1-3.2-.3.3-.1.1-.1.1v2.1c0 .1-.1.2-.1.3-.3.5-.3 1.1.1 1.5l.3.3c-.2-.4-.1-.8.1-1.2.1-.1.1-.2.2-.3zm.8-15.7l1.7 1 .2-5.5.3-7.7c0-.2 0-.3.2-.4l.1-.1h0l.3-.3h0c.5-.5.8-1.2.9-2 0-.8-.2-1.6-.8-2.2l-.2-.2c.4.5.5 1.2.5 1.8 0 .8-.3 1.5-.9 2h0l-.3.3h0l-.1.1c-.2.2-.2.3-.2.5l-.3 7.7-.2 5.5-1.6-.9c.2.2.3.4.4.4zm2.8-6.4h.2.3.1c-.2-.4-.3-.6-.6-.6v.6zm-3.8 26.5a11.92 11.92 0 0 1 1.8 1.5c-.6-.8-1.5-1.5-2.3-2l-.9-.7-.2-.2c.2.3.4.5.7.8.2.1.9.6.9.6zm5.6-16.1l.3.3c.9 1.3.9 2.7.1 4.1-.7 1.2-1.7 2.2-2.7 3.1l-.1.1V50l.6-.6c1-.9 2-1.9 2.7-3.1.8-1.4.7-2.8-.1-4.1-.3-.3-.6-.6-.8-.9zm-6.4 23.9c-.1.1-.2.1-.2.1v.1h.2.1c.8-.1 1.4-.3 1.7-.4v-.7c-.5.3-1.1.6-1.8.9zm3.8-8a4.44 4.44 0 0 1 .8 1.1c.8 1.5.6 3.1.4 3.5-.2.7-1.1 1.5-1.9 1.9v.8c.8-.4 2.1-1.3 2.4-2.2.2-.4.4-2-.4-3.5-.3-.6-.8-1.1-1.3-1.6zm7-24.4a8.4 8.4 0 0 0-.4-1.2c-.3-.5-.6-.9-1-1.2.2.2.3.4.5.7a8.4 8.4 0 0 1 .4 1.2c.1.3.1.6.1 1 0 .5-.2.8-.8.9h-.6c-1 0-1.9-.3-2.5-.9.7 1 1.7 1.5 3 1.5h.6c.5 0 .8-.4.8-.9.1-.5 0-.8-.1-1.1zm-7.7 9.8s-.1-.1-.2-.1v.2c-.1 1.8-.4 10.8-.4 10.8v1.1c-.3-.2-.5-.3-.6-.3 0 .1.1.2.2.2h0c.2.2.2.2.9.6V54l.4-10.8c.1-.2 0-.4-.3-.6zm-.7 17.1h0v.3l-.2 3.8.1 2.7h0c0 .1.1.2.2.2s.2-.1.2-.2h0v-.2c0-.1 0-1.2.1-2.5-.1 0-.1.1-.2.1 0-.5 0-.9.1-1.4l.2-.2c0-1 .1-1.8.1-1.8 0-.4-.3-.6-.6-.8z" opacity=".5" fill="url(#F)"/></svg>