<svg viewBox="0 0 423.2 46.6" fill="#fff"><path d="M195.5 34.1h2.7V11.8h-2.7v22.3zm0-26.5h2.7V3.2h-2.7v4.4zm-27.7-1.8h10.7v28.3h2.9V5.8h10.7V3.3h-24.4l.1 2.5h0zm60.7 5.4c-2.9 0-5.7 1.4-7.1 4.4-.8-2.9-3.5-4.4-6.4-4.4-3.6 0-5.9 1.7-7.3 4.4h-.1v-3.8h-2.5v22.3h2.7V21.6c0-4.7 2-8.2 6.6-8.2 3.5 0 4.7 2.5 4.7 5.5V34h2.7V21.5c0-4.1 1.3-8 6-8 3.9 0 5.3 2 5.3 5.7v15h2.7V19c.1-5.3-2.4-7.8-7.3-7.8zm21.5 0c-7.1 0-10.1 5.9-10.1 11.8 0 6.3 3 11.8 10.1 11.8 5.2 0 8.1-2.5 9.4-6.9h-2.8c-1 2.8-3.1 4.6-6.6 4.6-5.2 0-7.3-4.8-7.3-8.8h17.1c.2-6.3-2.7-12.5-9.8-12.5zm-7.3 10.2c.5-4.1 2.8-7.9 7.3-7.9 4.4 0 6.9 3.8 7.1 7.9h-14.4zM2.4 3.2H12l7.2 21.3h.1l6.8-21.3h9.6v30.9h-6.4V12.2h-.1l-7.6 21.9h-5.2L8.8 12.5h-.1v21.7H2.3v-31h.1zm42.8 21.2c.2 3.9 2 5.7 5.5 5.7 2.5 0 4.5-1.5 4.8-2.9h5.4c-1.7 5.3-5.4 7.5-10.5 7.5-7.1 0-11.4-4.8-11.4-11.8 0-6.7 4.6-11.8 11.4-11.8 7.6 0 11.3 6.4 10.9 13.3H45.2zm10-3.9c-.6-3.1-1.9-4.8-4.9-4.8-4 0-5 3-5.1 4.8h10zM81 31.3h0c-1.5 2.4-4 3.5-6.9 3.5-6.8 0-10-5.8-10-12 0-6 3.3-11.6 9.9-11.6 2.6 0 5.2 1.1 6.6 3.3h.1V3.2h6.1v30.9H81v-2.8h0zm-5.4-15.5c-4 0-5.4 3.5-5.4 7.1 0 3.5 1.6 7.2 5.4 7.2 4 0 5.3-3.5 5.3-7.2 0-3.6-1.3-7.1-5.3-7.1zm22.7-7.5h-6.2V3.2h6.1l.1 5.1h0zm-6.2 3.5h6.1v22.4h-6.1V11.8zm25.9 7.8c-.4-2.6-1.9-3.9-4.5-3.9-3.9 0-5.2 4-5.2 7.3 0 3.2 1.3 7.1 5.1 7.1 2.9 0 4.5-1.8 4.9-4.5h5.9c-.8 5.9-4.8 9.2-10.8 9.2-6.8 0-11.3-4.8-11.3-11.5 0-7 4.2-12.1 11.4-12.1 5.3 0 10.2 2.8 10.5 8.5l-6-.1h0zm9-1c.3-5.7 5.5-7.5 10.5-7.5 4.5 0 9.8 1 9.8 6.4v11.6c0 2 .2 4.1.8 5h-6.2c-.2-.7-.4-1.4-.4-2.2-1.9 2-4.8 2.8-7.5 2.8-4.3 0-7.6-2.1-7.6-6.7.1-10.2 15.1-4.7 14.9-9.7 0-2.6-1.8-3-4-3-2.4 0-3.9 1-4.1 3.4l-6.2-.1h0zm14.2 4.6c-1 .9-3.2 1-5.1 1.3s-3.6 1-3.6 3.3 1.8 2.9 3.8 2.9c4.8 0 5-3.8 5-5.2l-.1-2.3h0zm10.7-20h6.1v30.9h-6.1V3.2zm196 16.3c-.1-1.2-.6-2.2-1.7-2.9-1-.7-2.3-.9-3.5-.7-.6.1-1.5.3-2.9.8-1.1.5-1.7.8-2.1 1.2-.2-1.1-.4-1.7-.8-1.9-.1 0-.4-.2-1.1.2-1.4.7-3.9 4.1-7.4 10.6-2.7 5-6.8 12-8.2 16.1-.4 1.1.6 2.5 1.7.5.7-1 1.5-2.3 2.4-3.7 1.5-2.3 4.2-7.7 4.9-8.2 1.1 1 1.9 1.6 2.6 1.7 2.9.7 4.9-.3 5.6-.5 1.9-.7 4-2.2 6.3-4.3 3-3 4.4-5.9 4.2-8.9zm-6.6 8.1c-2.7 2.5-5.1 3.8-7.1 4-1 0-2.1 0-3.1-.2-1-.3-1.6-.6-1.6-1.4 0-.9 1.1-2.8 3.7-6.1 2.5-3.1 4-5 4.7-5.2 1.3-.9 2.7-1.3 4.3-1.4s2.5.5 2.6 1.8c.5 3-.7 5.8-3.5 8.5zm-55.8 5.9c-2.2 0-3.4-1.3-3.4-4 0-1.5.5-3.2 1.7-5l3.9-6.4c-4.9 2.4-9.4 6-13.3 10.9-2.2 3.3-3.6 4.9-3.9 5-1 0-1.6-.3-1.7-1 0-.3.3-1 .7-1.9l8.5-14.4c4.6-7.3 8.7-12.3 10.5-13l.2-.1c.4.1 1.6.2.7 1.9-.8 1.5-3.3 5-6.5 9.2-4 5-6.3 8.5-6.9 10 1.5-1 3.9-2.8 7.3-5.2 3.8-2.7 6.3-4 7.5-4s1.9.5 1.8 1.4v.3l-4 5.5c-2.7 3.5-4 6.2-3.9 7.9 0 .9.3 1.4 1 1.3 2.1 0 5.2-2.5 9.3-7.5.3-.4.7-.5.8-.5s.3.2.3.3c.1.8-1.8 2.9-5.7 6.2-2.4 2.1-4 3.1-4.9 3.1z"/><path d="M308.1 22c0 1.3-1.3 3.4-3.8 6.5-3 3.5-5.4 5.4-7.5 5.3h-.9c-.9 0-1.7-.5-2.2-1.5a3.1 3.1 0 0 1-.6-2.3c0-2.2 1.7-5.3 4.9-9.4s5.8-6 7.9-6c1.9-.1 2.9.9 2.8 3-.1.4-.1 1.2-.3 2.1 0 .1.4.2 1 .1s1.5-.3 2.8-1c.3-.1.1.2.1.3-.3 1.2-1.8 1.7-4.3 2.3 0 .1-.1.4.1.6zm-3.7-3c-1.2 0-3 1.4-5.3 4.4s-3.5 5.1-3.5 6.6c0 1.3.5 2.1 1.4 2.1 1.6.1 3.6-1.5 6-4.3s3.7-4.9 3.7-6.2c-.6-.3-1.4-1.1-2.3-2.6zm46 14.9c-1.9.1-3-1.3-3-3.8 0-2.1 1.2-4.9 3.4-8.5s4.1-5.5 5.5-5.6c.4.1.9.1 1.3.5s.7.7.8 1l-.7 1c-.3.3-.5.7-.9 1.1l-1.2 1.6c-.5.7-1.1 1.4-1.6 2-2.8 3.7-4.4 6.3-4.4 7.7s.5 2.1 1.4 2.1c.8-.1 1.8-.4 3.3-1.4 3.2-2 5.7-4.2 7.7-6.5.7-.8 1.2-1.3 1.4-1.3.3 0 .4.2.4.5s-.4 1-1.3 1.8c-.9.9-1.5 1.6-2.1 2.1-.5.5-.9.9-1 1.1-.2.1-.5.5-1 .9-.5.5-.8.8-1.2 1-.3.3-.7.5-1.2.9s-1 .6-1.3.9c-.3.1-.8.3-1.3.6-.9.1-1.8.3-3 .3zm12.1-23.5c.6.4.8.8.7 1.3-.1.4-.3.9-.7 1.2-.5.4-1 .5-1.6.6-.6-.1-1.2-.3-1.6-.6-.6-.4-.8-.8-.7-1.4 0-1 .8-1.5 2.1-1.7.7.2 1.3.2 1.8.6z"/><path d="M376.4 14.9h7s.8.5-.2.7c-1.2.3-3 .5-5.6.8l-7.7 1.1c-.7.7-2.1 2.6-4 5.8s-2.9 5.6-3 7.1c0 1.3.9 2.1 2.9 2.1.9 0 2.1-.3 3.7-.9s2.7-1.2 3.5-1.7c2.1-1.4 4.4-3.3 6.8-5.9.5-.5.8-.8 1.1-.8.1 0 .1.2.1.3 0 .3-.2.7-.9 1.4-1.9 2.4-4.3 4.4-6.7 5.9-3.1 1.9-5.8 2.7-8.5 2.7-1.2 0-2.2-.3-2.9-.8s-1.1-1.6-1.1-3.1c.1-1.6.8-3.8 2.1-6.4l3.1-6.2c-.6.1-1.1.2-1.4.1-1 0-1.7-.5-1.6-1.2-.1-.6.4-1.1 1.4-1.3.1 0 .3 0 .5-.1h3.3c.7-.8 1.4-1.9 2.3-3 1.1-1.4 1.7-2 2.2-2.1.4.1.9.1 1.4.5s.8.7.9 1.2c-.1.4-1 1.7-2.7 3.7 1 .1 2.4.1 4 .1z"/><path d="M396.7 16.9l.8-.2c.4.1.7.1 1.1.4s.5.7.5.8-1.1 1.9-3.5 5.4c-2.3 3.3-3.4 5.7-3.4 7 0 .1 0 .1.1.3.2.9.6 1.3 1.2 1.3 1.9-.1 5.5-3.2 10.5-9.4.2-.1.2-.3.3-.3s.3.2.2.5-.2.6-.4 1.1c-4.6 6.3-8.3 9.4-10.8 9.4-.3 0-.6-.1-.9-.1-1.6-.6-2.5-1.8-2.4-3.6-.1-.6 0-1.2.2-1.9l-3.4 3.3c-2.2 2-3.8 2.8-4.7 2.8-1 0-1.9-.4-2.7-.9-1-.7-1.4-1.7-1.4-2.9 0-2.7 1.9-5.9 5.7-9.6 3.7-3.7 7.2-5.5 10.4-5.6 1.2 0 2 .4 2.4 1.3.1.3.2.5.2.8-.1 0 0 .1 0 .1zm-16.4 13.6c0 1.3.5 2 1.4 2 2.1 0 5.1-2.4 8.8-7l5.9-8.1c-.2-.5-.8-.8-1.4-.8-2.2 0-5.3 1.7-9 5.1-3.9 3.6-5.7 6.4-5.7 8.8z"/><path d="M404.1 30.6c0 1.2.7 1.7 1.9 1.7s2.9-.7 4.9-1.9c2-1.4 4-3.1 5.7-5.4.5-.5.9-.9 1.2-.9s.4.1.4.3c0 .3-.7 1.2-2.3 3-3.8 4.1-7 6.3-9.6 6.3-1.2 0-2.3-.3-3.2-.8-.8-.5-1.3-1.5-1.3-2.7s.3-2.6 1-4.3c1.1-2.5 3-5.9 5.4-9.8 4.5-7.2 7.6-10.8 9.5-10.9.4.1.7.1 1.1.4s.7.7.6 1c-.9 1.2-2.5 3.4-5.2 6.8-2.5 3.4-4.3 5.7-5.2 7.2s-1.7 2.6-2.2 3.3-.9 1.2-1.1 1.7c-.2.4-.6 1-.8 1.5-.5 1.1-.8 2.4-.8 3.5zM330.3 25c-.8 1.4-1.5 2.2-1.8 2.5-3.5 3.3-6.5 4.6-9.5 4.2.5-1.3 1.3-3.6 2.3-6.7 1.2-3.3 2-5.4 2.7-6.4.2-.1.3-.4.5-.5.2-.3.5-.5.8-.8.3-.4.5-.7.6-1.1.1-.9-.4-1.2-1.5-1.5-.3 0-1.6.7-3.7 2.2l-7.3 5.2c-2.6 2.1-4.8 3.6-6.1 4.8-1.5 1.3-1 1.8.3.8 2-1.4 4.6-3.3 5.3-4 .3-.4.8-.6 1.3-1 2.5-1.9 4.7-3.4 6.8-4.7l-.4 1.7c-.4 2-1.1 4.5-2.2 7.2-.6 1.4-1.1 2.7-1.6 3.4-.4.7-1.7 1.9-3.5 1.5-1-.3-2.6-.8-3.2-2.8 0-.1-.1-.3-.1-.5-.1-.3-.4-.5-.7-.5-.7-.1-1 .9-.9 1.2.3 1.2.6 2.3 1.1 3 2 2.9 6 1.9 7 1.5l2-.6a22.69 22.69 0 0 0 4.3-.7c1.9-.7 4-2 6.3-4.1.3-.4.5-.7.5-.8.3-.4.9-2.7.7-2.5z"/></svg>