<svg id="printslipper" xmlns="http://www.w3.org/2000/svg" viewBox="0 0 512 512" preserveAspectRatio="xMidYMid meet"><path d="M62.6 9.6C49 12.9 35.2 23.3 28.5 35.4c-7 12.8-6.5-5-6.5 220.5L23.1 464c3.3 14.2 15.5 29.2 29.1 35.4 4 1.9 10 3.9 13.2 4.5 4.1.8 45.4 1.1 133 1.1 139.7 0 134.7.2 147.5-6.1 8.1-4 18.6-14.3 22.9-22.5 6.5-12.6 6.2-.3 6.2-201.9l1-195c1.1-13.5 3.8-24.6 7.7-31.7 5.2-9.5 16.4-17.8 30.1-22.3 7-2.2 30.1-1.7 37.2.9 6.2 2.3 13.7 8.2 17.7 14 6.4 9.3 6.4 9.4 6.1 69.7l-.3 54.4-2.8 6.1c-3.4 7.3-10.1 14.2-17.7 18.1l-5.5 2.8-27.5.5c-28 .5-31 .9-32.4 4.6-1.2 3.1-.6 7.4 1.4 9.4 1.9 1.9 3.3 2 29.3 2 22.1 0 28.4-.3 32.8-1.6 18.3-5.4 32.7-20 37.3-38 2.3-9 2.4-110.9.1-119.9-5-19.4-21-35-40.2-39-10.1-2.2-377.8-2.1-386.7.1zM379 28c-8.8 8.8-14.4 20.4-17.7 36.6-1.6 8.3-1.8 22.5-2.3 202.4l-.5 193.5-3.1 6.5c-5.4 11.4-14.7 18.6-26.9 21-4.4.8-41.1 1-134 .8l-132.7-2.3c-10.9-4.7-17.9-11.8-21.8-22.2-2-5.4-2-6.2-1.8-209.6l.3-204.2 2.8-5.3c3.5-6.7 8.9-12.6 14.1-15.7 9.6-5.6 2-5.4 171.4-5.4L383 24l-4 4zM190.5 65.9c-5.1 1.3-9.1 3.8-13.2 8.5-4.5 5.1-6.3 10.1-6.3 17.3v5l-6.9.6c-11 .9-18.7 6.1-23 15.7-3.1 6.9-3 23.6.3 30.5 4.4 9.5 14.2 15.5 25.3 15.5h4.3v5.7c0 11.5 7.7 21.7 18.6 24.9 7.9 2.3 22.2 1.6 28-1.4 9.3-4.8 14.3-12.7 14.4-22.8v-6.1l6.9-.6c10.9-.9 19.2-6.4 23.2-15.2 2.4-5.2 2.7-24.7.5-30-4.1-9.7-12.5-15.5-23.8-16.3l-6.8-.5v-6.2c0-11.4-7.6-21.4-18.8-24.5-4.2-1.1-18.1-1.2-22.7-.1zm23.1 18.4c2.3 2.7 2.4 3.5 2.4 15.7v12.8l13.6.4c13.5.3 13.6.3 16 3.1 2.1 2.5 2.4 3.7 2.4 11.7s-.3 9.2-2.4 11.7c-2.4 2.8-2.5 2.8-16 3.1l-13.6.4V156c0 12.1-.1 13-2.4 15.7-2.1 2.5-3.1 2.8-10 3.1-4.7.3-8.8-.1-10.7-.8-5.3-2.2-5.9-4.1-5.9-18.2V143h-12c-18 0-20-1.5-20-15s2-15 20-15h12v-12.6c0-6.9.5-13.4 1-14.4 2-3.8 6-5 14.8-4.8 7.8.3 8.5.5 10.8 3.1zM91.3 232.5c-4.4 3.1-3.7 11.1 1.3 13.4 2.7 1.2 205.7 1.7 210.2.5 5.2-1.4 6.5-10.7 1.9-13.9-3.2-2.3-210.1-2.3-213.4 0zm2.1 65.5c-2.8 1.1-5.4 4.8-5.4 7.6 0 1.2.9 3.3 2.1 4.8l2 2.6h58.8c58 0 58.8 0 60.6-2 2.6-2.9 2.5-8.5-.3-11.3l-2.3-2.2-56.7-.2c-31.2-.1-57.7.2-58.8.7z"/><path d="M243.3 297.7c-5.1 1-7.1 9.5-3.3 13.3 1.9 1.9 3.3 2 32.9 2h31l2-2.6c2.8-3.5 2.6-6.7-.3-10.1l-2.4-2.8-28.9-.1c-15.8-.1-29.8 0-31 .3zm36.2 62.8c-2 1.9-2.5 3.4-2.5 7.3 0 4.8-.1 5-4.7 7.9-6.7 4.1-10.7 11.5-10.7 19.8.1 6.7 1.9 11.1 6.8 16.3 3.8 4.2 7 5.8 13.2 7.2 2.7.5 5.9 1.2 7.1 1.5 2.3.5 5.3 5.1 5.3 8 0 .9-1.3 3-2.9 4.6-4.3 4.3-7.5 3.9-12.5-1.6-3.5-3.7-4.8-4.5-7.7-4.5-4.4 0-7.9 3.4-7.9 7.7 0 4 4.9 10.6 10 13.5 3.7 2.2 4 2.6 4 6.8 0 2.5.7 5.5 1.5 6.7 2.1 2.9 6.6 3.8 10.3 1.9 3.4-1.8 4.2-3.3 4.2-8.7 0-3.5.4-4.1 3.9-5.9 5.3-2.7 9.9-8.4 11.7-14.9 2.5-8.5.6-16-6-22.9-4.2-4.5-7.7-6.2-14.9-7.2-7.2-1.1-9.8-3.2-10-8.4-.1-4.8 3-8 7.7-8 2.5 0 4.5.9 7.5 3.7 4.5 4.1 5.9 4.4 10 2.2 7.2-3.7 4.4-13.4-5.3-18.6-4.5-2.3-4.6-2.5-4.6-7.2 0-5.9-3.2-9.7-8-9.7-1.9 0-4 .9-5.5 2.5zm-189.4 8.1c-2.8 3.5-2.6 6.7.3 10.1l2.4 2.8h30.7 30.7l1.9-2.4c2.5-3.1 2.5-8.5-.1-11.1-1.9-1.9-3.3-2-32.9-2h-31l-2 2.6z"/></svg>