<svg id="printbtn" xmlns="http://www.w3.org/2000/svg" width="3792" height="3792" viewBox="0 0 2844 2844" preserveAspectRatio="xMidYMid meet"><path d="M1380.5 6.6c-51.6 2.2-85.2 4.7-122.5 9-223.5 25.7-436.5 104.2-623.7 229.7-106.6 71.5-203.2 157.4-287.9 256C255.6 607 180.2 727.1 124.3 855 61.7 998.2 23.9 1148.1 11.1 1304c-3.7 44.3-4.5 65.8-4.5 118s.8 73.7 4.5 118c14.6 177.6 61.7 347.8 140.4 507.5 84.9 172 202.9 324 349.8 450.1 195.5 167.9 437 280.5 689.2 321.4 81.9 13.3 146.7 18.4 231.5 18.4 52.2 0 73.3-.8 118-4.5 177.6-14.6 347.8-61.7 507.5-140.4 172-84.9 324-202.9 450.1-349.8 126.7-147.5 222.8-322.4 279-507.6 33.9-111.7 52.4-217.7 59.6-340.6 1.6-27.2 1.6-117.8 0-145-1.7-29.5-4.8-66.2-7.8-91.5-20.9-181.1-76.1-354.8-163.6-514.9-82.1-150-190.9-284-322.1-396.7-147.6-126.8-322.3-222.8-507.6-279-111-33.7-218.4-52.5-338.6-59.4-18-1.1-101-2.1-116-1.4zM1712 353c110.8 1.7 145.8 3.2 163.7 7.1 12 2.6 36.8 10.5 49.8 16 92.7 38.5 161.7 119 185.4 216.1 7.9 32.6 8.3 39.5 8.8 178.4l.5 120.2 39.1.5c39 .5 53.1 1.5 75.2 5.3 33.6 5.7 68.9 18.8 99.2 36.5 68 40 116.5 99.2 141.8 173.1 9.2 26.9 12.8 46 14.7 77.8 2.3 40.8.5 507.7-2.2 552-2.7 44.5-5.8 58.8-19.3 89-23.8 53-57.7 96.2-103.3 131.7-34.2 26.6-69.1 43.6-108.5 52.7-33.2 7.7-52.2 9.7-99 10.3l-37.7.6-.5 139.1c-.5 133.8-1.1 164.2-3.8 181.1-.6 3.8-3 12.8-5.4 20-20.3 62-71.8 110-135.3 126-16.9 4.2-105.8 5-583.2 5l-513.5-3.5c-16.6-1.9-41.8-11.1-59.5-21.6-41.5-24.7-70.9-61.1-85.5-105.7-8.4-25.7-8.6-30.7-9.2-200.8l-.5-139.6-37.7-.6c-24.9-.3-42.2-1.1-51.1-2.1-65.2-7.7-116.3-28.5-163.3-66.3-56.9-45.8-95.6-106.6-111.2-174.4-7-30.4-8-70.8-8-331.9 0-270.8.7-288.4 13.2-330.5 15.3-51.4 42.5-95.5 83.2-134.8 38.7-37.3 82.8-63 130.8-76.1 34.5-9.4 63-12.6 114-12.6h30.1l.5-120.3c.5-139 .9-146 8.8-178.4 20.7-84.5 75.8-157 152.4-200.5 23.5-13.3 55.2-25.6 80.5-31.4 17-3.8 60.7-5.8 163-7.3 76-1.2 509.3-1.2 583-.1zm-429 125l-271.9 4c-16.9 1.1-27.4 3.4-42.4 9.4-16 6.5-26.4 12.3-40.2 22.7-38.6 28.9-65.4 69.4-74 111.9-3.1 15.8-3.7 37.4-4.2 151.2l-.5 113.8H1422h572.2l-.5-113.8c-.6-138.7-.8-143-9.3-169.1-17.6-54-61.1-98.9-115.4-119-13.4-5-24.4-7.2-40-8.1-44.9-2.6-328.6-4.2-546-3zm-360 540.1l-290.5 3.9c-11.2.7-14.7 1.4-25 4.8-29.3 9.8-50.3 23-73.5 46.1-32.1 32.1-50.5 69.5-53 108.1-4 61-4 487.1-.1 549 .8 11.8 1.6 16.8 4.5 26.7 8.6 29.7 23.3 54.5 46.5 78.6 35.5 36.7 71.1 53.1 125.6 57.7 6.6.5 24.3 1 39.3 1H724l-.2-104.3-.3-104.2-22-.6c-23.2-.6-27.5-1.3-39.7-6.5-18-7.5-31.8-22.9-36.3-40.1-2-7.7-1.9-23.5.1-30.4 4-13.5 13.6-27.4 24.4-35.4l5.9-4.3 47.3-.6 190.3-2.1 314-3.5 503.5-2 468.8 5.4c7.7 2.1 13.9 6 21.8 14.1 7.5 7.7 13.9 18.5 16.8 28.4 2 7 2.1 22.8.1 30.4-4.5 17.2-18.3 32.6-36.3 40.1-12.2 5.2-16.5 5.9-39.7 6.5l-22 .6-.3 104.4-.2 104.3 33.7-.5c37.9-.5 49.4-1.7 71.6-7.2 28.6-7.1 51.6-18.8 74.4-37.8 17.5-14.6 33-35.1 45.7-60.4 11.7-23.3 16.3-38.3 17.6-57.3 2.3-33.5 3.2-146.7 2.7-322.5l-4.3-243c-2.4-12.3-7-25.8-13.4-39.3-24.3-50.8-69.8-89-122.9-102.8-8.7-2.2-12.4-2.5-44.5-3.4-75.9-2.1-287.7-3-704.6-2.8l-553 .9zm-33 142c21.4 2 34.6 8.7 45.7 23.4 8.7 11.5 14.3 26.5 14.3 38 0 7.4-3.4 19.6-7.7 27.8-5.6 10.6-17.7 22.6-27.5 27.2-14.4 6.9-12.7 6.8-117.8 7.2-116.6.5-123.7.1-140-7.8-13.1-6.5-26.6-23.6-31.4-39.8-2.1-7.2-2.1-22 0-29.2 4.8-16.4 17.6-32.7 31.1-39.7 9.4-4.8 14.8-6.1 29-7.1 17.2-1.3 191-1.3 204.3 0zm-39.7 828.1l3.8 333.7c2.9 14.2 14.3 27.4 32.7 37.9l11.1 6.3 507.3-.4 543.8-3.7c19.8-3.5 37.9-22.3 41.6-43 3-17.2 3.4-59.2 3.4-345.8V1685h-572-572.1l.4 303.2zm738.2-159.2c6.6.5 14.5 1.5 17.5 2.1 18 3.6 36.8 21.9 43.1 41.9 2.9 9.2 3.5 20.9 1.5 29-5.3 21.1-22.1 40.4-40.1 45.9-13.9 4.3-25.4 4.6-188.5 4.6s-174.6-.3-188.5-4.6c-22-6.8-41.5-33.8-41.5-57.4.1-24.1 18.4-50.4 40.3-57.9 8.9-3 24.5-3.9 81.2-4.6 73.6-1 259.4-.3 275 1zm-7.6 267c9.6.6 20.5 1.7 24.1 2.4 7.7 1.6 16.5 5.8 22.8 10.8 9.9 7.9 19.8 23.7 22.8 36.4 4.4 18.8-2.6 40.3-18.3 56-8 8-17.5 13.4-27.3 15.3-13 2.6-40.5 3.1-183 3.1s-170-.5-183-3.1c-24.1-4.8-45-30-46.7-56.4-1.6-23.9 16.5-51.9 38.2-59.6 7.9-2.7 17.4-4 37.8-4.8 28-1.2 292.4-1.2 312.6-.1z"/></svg>