<svg id="printa4" xmlns="http://www.w3.org/2000/svg" viewBox="0 0 512 512" preserveAspectRatio="xMidYMid meet"><path d="M92.7 1.2C89.7 3.5 89 8 89 24.1V40H72.5c-17.5 0-20.6.6-22.4 4.7-1.6 3.4-1.4 4.7 1 7.7l2 2.6h18H89v201 201H71.1h-18l-2 2.6c-2.4 3-2.6 4.3-1 7.7 1.8 4.1 4.9 4.7 22.4 4.7H89v15.9c0 8.9.5 17.2 1.1 19 1.9 5.4 7.9 6.9 11.7 2.8l2.2-2.3.2-226 .3-225.9 108.2-.5c118.3-.5 110.3-.1 111.8-6.2.6-2.2.1-3.3-2.3-5.8l-3-3H211.6 104V22.2c0-17.4-.1-17.9-2.3-20-2.6-2.4-6.5-2.8-9-1zm317.5 1.1c-2.1 2.3-2.2 3.1-2.2 25.5 0 21.9.1 23.3 2 25.2s3.3 2 25.4 2h23.5l2-2.6c2.4-3 2.6-4.3 1-7.7-1.8-4.1-4.9-4.7-22.4-4.7H423V24.1c0-8.9-.5-17.2-1.1-19-1.9-5.4-7.9-6.9-11.7-2.8z"/><path d="M351 40.7c-.8.3-2.3 1.2-3.2 2.1-1.6 1.4-1.8 4.1-1.8 30.2 0 28.1 0 28.8 2.3 33.1 1.3 2.4 4.3 5.7 6.6 7.4l4.3 3 24.1.5 24.2.5V287v169.5l-140.2.5c-153.4.5-142.3.1-143.8 6.2-.6 2.2-.1 3.3 2.3 5.8l3 3h139.6H408v17.8c0 17.4.1 17.9 2.3 20 4.1 3.9 9.7 2.5 11.6-2.9.6-1.8 1.1-10.1 1.1-19V472h16.5c17.5 0 20.6-.6 22.4-4.7 1.6-3.4 1.4-4.7-1-7.7l-2-2.6h-18H423V283.6l-1-176.3c-1.2-3.2-61-63.7-65.2-65.9-2.9-1.5-3.4-1.6-5.8-.7zm29.4 61.1c-13.5.2-15.9 0-17.5-1.4-1.7-1.5-1.9-3.4-1.9-17.8V66.5L378.5 84l17.5 17.5-15.6.3zM238.6 356.1c-5.7 1.6-9.4 6.9-28.4 41.1-9.1 16.2-9.8 19.4-5.6 22.7 2.4 1.9 4 2.1 18 2.1H238v8.3c0 7.4.3 8.6 2.3 10.5 3.3 3.1 8 2.9 10.6-.4 1.7-2.2 2.1-4.1 2.1-10.5 0-7 .2-7.9 1.9-7.9 3.4 0 7.1-3.8 7.1-7.4 0-3.8-3.4-7.6-6.8-7.6-2.2 0-2.2-.1-2.2-21 0-21.7-.5-24.7-4.3-27.9-2.4-1.9-7-2.8-10.1-2zm-.9 50.6c-.3.2-3.9.3-8 .1l-7.6-.3 7.7-13.6 7.7-13.7.3 13.6c.1 7.4.1 13.7-.1 13.9zm-85.5-49c-2.2 1.9-30.2 74.1-30.2 77.8 0 5.4 5.9 8.6 10.9 6.1 2.1-1.2 3.4-3.2 5.5-9l2.8-7.6H158h16.8l1.3 3.7c3.9 12.2 7.9 15.9 13.8 12.9 1.8-1 3.3-2.7 3.7-4.2.9-3.5-26.6-77-29.7-79.7-1.2-.9-3.8-1.7-5.9-1.7s-4.7.8-5.8 1.7zm11.4 38.1l5.1 13.7-5.4.3c-2.9.2-7.7.2-10.7 0l-5.4-.3 5.2-13.7c2.8-7.6 5.3-13.8 5.6-13.8s2.8 6.2 5.6 13.8z"/></svg>