<svg id="printfull" xmlns="http://www.w3.org/2000/svg" viewBox="0 0 512 512" preserveAspectRatio="xMidYMid meet"><path d="M12.3 111.5c-5.4 2.7-9.7 7.8-11.3 13.6-1.4 4.6-1.4 257.2 0 261.8 1.6 5.8 5.9 10.9 11.3 13.6l5.1 2.5h65.3c64 0 65.3 0 67.3-2 3-3 2.7-8.3-.6-10.9-2.6-2.1-3.4-2.1-66.5-2.1H19.1l-2-2.6C15 382.7 15 382.7 15 256s0-126.7 2.1-129.4l2-2.6H152h132.9l2.7-2.3c3.5-3.1 3.8-8.2.5-10.9-2.2-1.7-7.6-1.8-136.5-1.8H17.4l-5.1 2.5zM308 111c-3 3-2.7 8.3.6 10.9 2.7 2.1 3.1 2.1 93.5 2.1h90.8l2 2.6c2.1 2.7 2.1 2.7 2.1 129.4s0 126.7-2.1 129.4l-2 2.6H333 173.1l-2.7 2.3c-3.5 3.1-3.8 8.2-.5 10.9 2.2 1.7 8.3 1.8 163.5 1.8l165.1-1.9c4.5-2.1 8.9-6.1 11.3-10.6 1.6-2.7 1.7-14.1 2-131l-.3-132.1c-.9-6.4-5.7-12.8-11.7-15.8l-5.2-2.6h-92.3c-91 0-92.3 0-94.3 2zm101.1 30.6c-2.6 3.3-2.7 6.5-.2 9.5l1.9 2.4 28.1.3 28.1.3v27.3c0 25.3.1 27.6 1.9 29.7 2.6 3.2 8.6 3.2 11.2 0 1.8-2.2 1.9-4.6 1.9-34.6 0-31.1-.1-32.3-2.1-34.9l-2-2.6h-33.4-33.4l-2 2.6zm-290.7 53.5c-2.2 1.1-4.4 4.8-4.4 7.3 0 .7.9 2.5 2.1 4 1.9 2.5 2.5 2.6 11.4 2.6h9.4l.3 52.1.3 52.1 2.9 2.5c3.1 2.7 6.6 2.5 9.9-.4 1.6-1.5 1.7-5.6 1.7-59.3 0-57.4 0-57.7-2.1-59.6-1.8-1.6-3.9-1.9-15.8-2.1-8.1-.2-14.5.2-15.7.8zm91.7 1.7c-4.2 2-17.7 16.3-22.9 24.2-13.4 20.2-21.7 47.9-19.2 63.5 2.7 16.7 15.1 29.3 32 32.5 16.3 3.1 33.4-6 41.2-21.8 3-6.1 3.3-7.4 3.3-16.2 0-8.6-.3-10.1-3.2-16.2-4-8.6-10.6-15.1-19.1-19.1-5.6-2.6-7.8-3.1-14.7-3.1-4.4-.1-9.5.3-11.2.7-2.1.6-3.3.5-3.3-.2 0-2.4 13.2-20.3 20.2-27.4 5.8-5.9 7.8-8.6 7.8-10.6 0-6-5.3-9.1-10.9-6.3zm4.1 59.8c5 1.7 10.9 6.7 13.4 11.5.8 1.7 1.8 5.2 2.1 7.9 2.2 18.7-17.5 32.5-34.2 23.9-17.4-8.9-17.1-33.2.4-42.2 6.3-3.1 11.5-3.5 18.3-1.1zm139.2-60.5c-15.1 1.9-28.1 13.7-32 28.9-5.9 23.1 11.1 46.2 35 47.8 3.9.2 8.9-.1 11-.7 2.2-.6 4.2-.9 4.4-.7 1.5 1.6-12.5 21.1-21.7 30.1-6.5 6.3-7.5 9.1-4.6 13.2 3.7 5.3 9.3 3.5 19-6.1 16.1-16.2 28.2-39.9 32.2-63.3 1.3-8.2 1.4-10.9.4-16.7-3.6-21.4-22.2-35.2-43.7-32.5zm16.9 17.3c7.8 3.8 13.7 15.2 12.3 23.8-2.5 15.7-19.3 25.2-33.2 18.9-13.1-5.9-18.1-22-10.7-34 6.7-10.8 19.7-14.3 31.6-8.7zm-91 24.6c-4.7 1.9-5.8 9.2-2 12.8 4.2 4 10.7 2.5 12.6-2.8 2.3-6.7-4.1-12.7-10.6-10zm0 30c-4.7 1.9-5.8 9.2-2 12.8 4.2 4 10.7 2.5 12.6-2.8 2.3-6.7-4.1-12.7-10.6-10zm-245 31c-1.2.5-2.6 1.8-3.2 2.9-.7 1.3-1.1 13.2-1.1 33.9 0 30.8.1 32 2.1 34.6l2 2.6h33.4 33.4l2-2.6c2.6-3.3 2.7-6.5.2-9.5l-1.9-2.4-28.1-.3-28.1-.3v-27.3c0-24.6-.2-27.6-1.7-29.4-2.1-2.5-6-3.5-9-2.2z"/></svg>