<svg id="reloadbtn" xmlns="http://www.w3.org/2000/svg" viewBox="0 0 50 50"><path d="M24.3.3c-.3.1-.5.3-.6.6-.2.4-.2.6-.2 2.8V6h-.4c-1.5 0-4.4.7-6.4 1.6-4.5 1.9-8.1 5.1-10.6 9.2-5 8.6-3.6 19.6 3.5 26.7 4.6 4.6 11 6.9 17.4 6.3 9.6-.9 17.6-8.2 19.4-17.6 1-4.9.3-9.7-2-14.2-.4-.9-.9-1.7-1-1.8-.5-.6-1.2-.8-1.8-.5-.7.3-5.3 3.9-5.4 4.2-.2.5-.1 1.1.4 2.1 1.8 3.5 1.9 7.1.5 10.8-1.3 3.3-4.3 6.3-7.6 7.5-3.4 1.3-7.1 1.1-10.3-.5-.9-.5-2.3-1.5-3.1-2.2-3.2-3-4.7-7.3-4.1-11.5.4-2.9 1.6-5.4 3.7-7.4 2-2 4.2-3.1 6.8-3.6.4-.1.8-.2.9-.2 0 0 .1 1 .1 2.3 0 2.2 0 2.3.2 2.7.2.4.8.8 1.2.8.1 0 .4-.1.6-.1.2-.1 3-2.2 6.3-4.6 6.2-4.7 6.3-4.7 6.3-5.4 0-.7 0-.8-6.3-5.5L25.5.5c-.4-.5-.7-.4-1.2-.2z"/></svg>