<svg id="viewbtn" viewBox="0 0 30 30"><path d="M13.91.37c-2.13.2-3.74.65-5.5 1.54a14.16 14.16 0 0 0-3.55 2.53c-1.3 1.25-2.22 2.51-3.01 4.11C.89 10.5.43 12.34.35 14.51a14.18 14.18 0 0 0 1.51 6.95 13.56 13.56 0 0 0 2.8 3.88c1.27 1.26 2.36 2.04 3.9 2.8 1.08.53 1.77.78 2.86 1.06a14.56 14.56 0 0 0 8.54-.41c.85-.3 2.33-1.04 3.09-1.55 2.09-1.39 3.82-3.31 4.96-5.52 1.04-1.99 1.55-3.98 1.64-6.24a14.18 14.18 0 0 0-1.51-6.95c-.71-1.43-1.51-2.56-2.62-3.71-1.24-1.28-2.45-2.17-4.07-2.97-1.7-.84-3.28-1.29-5.16-1.46-.59-.05-1.91-.06-2.38-.02zm2.63 7.83c2.04.37 3.83 1.28 5.36 2.73.93.88 1.82 2.02 2.27 2.9.37.74.37 1.58 0 2.33-.43.85-1.32 2-2.25 2.88-3.06 2.93-7.26 3.67-11 1.95-1.72-.8-3.4-2.26-4.56-3.98-.7-1.05-.89-1.66-.76-2.42.11-.65.65-1.58 1.52-2.62 1.84-2.2 4.26-3.55 6.91-3.86.57-.06 1.92-.01 2.51.09zm-2.8 1.5c-2.54.43-4.93 2.12-6.36 4.51-.25.41-.28.5-.28.79s.03.38.28.79c.81 1.36 2.09 2.63 3.43 3.43 2.62 1.55 5.78 1.55 8.4 0a10.51 10.51 0 0 0 3.43-3.43c.25-.41.28-.5.28-.79s-.03-.38-.28-.79c-1.44-2.41-3.84-4.1-6.39-4.51a9.59 9.59 0 0 0-2.51 0zm2.14 1.32a4.03 4.03 0 0 1 3.17 4.17c-.05 1.06-.43 1.91-1.19 2.67a3.88 3.88 0 0 1-2.67 1.19c-3.06.15-5.18-3.03-3.86-5.8.82-1.71 2.72-2.64 4.55-2.23zm-1.37 1.47c-1.31.25-2.26 1.59-2.04 2.89.23 1.39 1.57 2.37 2.92 2.14 1.11-.19 1.94-1.03 2.13-2.14.23-1.32-.73-2.65-2.09-2.9a1.91 1.91 0 0 0-.92.01z"/></svg>